<svg width="28" height="28" viewBox="0 0 28 28" fill="none" xmlns="http://www.w3.org/2000/svg">
<path d="M10 0.666687C4.86114 0.666687 0.666672 4.86116 0.666672 10C0.666672 15.1389 4.86114 19.3334 10 19.3334C12.3307 19.3334 14.46 18.4641 16.099 17.0417L16.6667 17.6094V19.3334L24.6667 27.3334L27.3333 24.6667L19.3333 16.6667H17.6094L17.0417 16.099C18.464 14.46 19.3333 12.3307 19.3333 10C19.3333 4.86116 15.1389 0.666687 10 0.666687ZM10 3.33335C13.6977 3.33335 16.6667 6.30233 16.6667 10C16.6667 13.6977 13.6977 16.6667 10 16.6667C6.30231 16.6667 3.33334 13.6977 3.33334 10C3.33334 6.30233 6.30231 3.33335 10 3.33335Z" fill="#000"/>
</svg>
